<mxfile host="app.diagrams.net" agent="Mozilla/5.0 (Windows NT 10.0; Win64; x64) AppleWebKit/537.36 (KHTML, like Gecko) Chrome/133.0.0.0 Safari/537.36" version="26.0.14">
  <diagram name="Page-1" id="d91iVZBktOoqk5Nxm2JA">
    <mxGraphModel dx="1195" dy="615" grid="1" gridSize="10" guides="1" tooltips="1" connect="1" arrows="1" fold="1" page="1" pageScale="1" pageWidth="827" pageHeight="1169" math="0" shadow="0">
      <root>
        <mxCell id="0" />
        <mxCell id="1" parent="0" />
        <mxCell id="hAFXoPp_balmU8CgIpgm-49" value="Pepper" style="rounded=0;whiteSpace=wrap;html=1;verticalAlign=top;" parent="1" vertex="1">
          <mxGeometry x="845" y="90" width="155" height="530" as="geometry" />
        </mxCell>
        <mxCell id="hAFXoPp_balmU8CgIpgm-47" value="External Computer" style="rounded=0;whiteSpace=wrap;html=1;verticalAlign=top;" parent="1" vertex="1">
          <mxGeometry x="550" y="90" width="280" height="390" as="geometry" />
        </mxCell>
        <mxCell id="hAFXoPp_balmU8CgIpgm-1" value="System Architecture Diagram" style="text;html=1;align=center;verticalAlign=middle;resizable=0;points=[];autosize=1;strokeColor=none;fillColor=none;" parent="1" vertex="1">
          <mxGeometry x="20" y="48" width="180" height="30" as="geometry" />
        </mxCell>
        <mxCell id="hAFXoPp_balmU8CgIpgm-16" style="edgeStyle=orthogonalEdgeStyle;rounded=0;orthogonalLoop=1;jettySize=auto;html=1;dashed=1;dashPattern=8 8;" parent="1" source="hAFXoPp_balmU8CgIpgm-4" target="hAFXoPp_balmU8CgIpgm-15" edge="1">
          <mxGeometry relative="1" as="geometry" />
        </mxCell>
        <mxCell id="hAFXoPp_balmU8CgIpgm-18" style="edgeStyle=orthogonalEdgeStyle;rounded=0;orthogonalLoop=1;jettySize=auto;html=1;entryX=0.5;entryY=0;entryDx=0;entryDy=0;" parent="1" source="hAFXoPp_balmU8CgIpgm-4" target="hAFXoPp_balmU8CgIpgm-5" edge="1">
          <mxGeometry relative="1" as="geometry" />
        </mxCell>
        <mxCell id="hAFXoPp_balmU8CgIpgm-4" value="Pepper&#39;s Cameras" style="rounded=1;whiteSpace=wrap;html=1;" parent="1" vertex="1">
          <mxGeometry x="35" y="90" width="150" height="42" as="geometry" />
        </mxCell>
        <mxCell id="hAFXoPp_balmU8CgIpgm-20" style="edgeStyle=orthogonalEdgeStyle;rounded=0;orthogonalLoop=1;jettySize=auto;html=1;entryX=0;entryY=0.5;entryDx=0;entryDy=0;dashed=1;dashPattern=8 8;" parent="1" source="hAFXoPp_balmU8CgIpgm-5" target="hAFXoPp_balmU8CgIpgm-19" edge="1">
          <mxGeometry relative="1" as="geometry" />
        </mxCell>
        <mxCell id="hAFXoPp_balmU8CgIpgm-23" style="edgeStyle=orthogonalEdgeStyle;rounded=0;orthogonalLoop=1;jettySize=auto;html=1;entryX=0.5;entryY=0;entryDx=0;entryDy=0;" parent="1" source="hAFXoPp_balmU8CgIpgm-5" target="hAFXoPp_balmU8CgIpgm-21" edge="1">
          <mxGeometry relative="1" as="geometry" />
        </mxCell>
        <mxCell id="hAFXoPp_balmU8CgIpgm-5" value="MediaPipe Object Detection" style="rounded=1;whiteSpace=wrap;html=1;" parent="1" vertex="1">
          <mxGeometry x="45" y="170" width="130" height="50" as="geometry" />
        </mxCell>
        <mxCell id="hAFXoPp_balmU8CgIpgm-15" value="Captures Image" style="rounded=1;whiteSpace=wrap;html=1;dashed=1;" parent="1" vertex="1">
          <mxGeometry x="252.5" y="87" width="117.5" height="48" as="geometry" />
        </mxCell>
        <mxCell id="hAFXoPp_balmU8CgIpgm-19" value="Detects Specified Objects and Outputs Labels" style="rounded=1;whiteSpace=wrap;html=1;dashed=1;" parent="1" vertex="1">
          <mxGeometry x="252.5" y="170" width="117.5" height="50" as="geometry" />
        </mxCell>
        <mxCell id="hAFXoPp_balmU8CgIpgm-24" style="edgeStyle=orthogonalEdgeStyle;rounded=0;orthogonalLoop=1;jettySize=auto;html=1;dashed=1;dashPattern=8 8;" parent="1" source="hAFXoPp_balmU8CgIpgm-21" target="hAFXoPp_balmU8CgIpgm-22" edge="1">
          <mxGeometry relative="1" as="geometry" />
        </mxCell>
        <mxCell id="hAFXoPp_balmU8CgIpgm-26" style="edgeStyle=orthogonalEdgeStyle;rounded=0;orthogonalLoop=1;jettySize=auto;html=1;entryX=0.5;entryY=0;entryDx=0;entryDy=0;" parent="1" source="hAFXoPp_balmU8CgIpgm-21" target="hAFXoPp_balmU8CgIpgm-25" edge="1">
          <mxGeometry relative="1" as="geometry" />
        </mxCell>
        <mxCell id="hAFXoPp_balmU8CgIpgm-21" value="Pepper&#39;s 2D cameras" style="rounded=1;whiteSpace=wrap;html=1;" parent="1" vertex="1">
          <mxGeometry x="50" y="250" width="120" height="60" as="geometry" />
        </mxCell>
        <mxCell id="hAFXoPp_balmU8CgIpgm-22" value="Determines the depth of the object at the location provided" style="rounded=1;whiteSpace=wrap;html=1;dashed=1;" parent="1" vertex="1">
          <mxGeometry x="251.25" y="250" width="128.75" height="60" as="geometry" />
        </mxCell>
        <mxCell id="hAFXoPp_balmU8CgIpgm-28" style="edgeStyle=orthogonalEdgeStyle;rounded=0;orthogonalLoop=1;jettySize=auto;html=1;dashed=1;dashPattern=8 8;" parent="1" source="hAFXoPp_balmU8CgIpgm-25" target="hAFXoPp_balmU8CgIpgm-27" edge="1">
          <mxGeometry relative="1" as="geometry" />
        </mxCell>
        <mxCell id="hAFXoPp_balmU8CgIpgm-25" value="Movement &amp;amp; Grasping" style="rounded=1;whiteSpace=wrap;html=1;" parent="1" vertex="1">
          <mxGeometry x="50" y="350" width="120" height="60" as="geometry" />
        </mxCell>
        <mxCell id="hAFXoPp_balmU8CgIpgm-27" value="Pepper Navigates to the object, performs movement to grasp the object then relocates to drop the object in the coresponding bin." style="rounded=1;whiteSpace=wrap;html=1;dashed=1;" parent="1" vertex="1">
          <mxGeometry x="233.44" y="335" width="164.37" height="90" as="geometry" />
        </mxCell>
        <mxCell id="hAFXoPp_balmU8CgIpgm-29" value="Block Diagram" style="text;html=1;align=center;verticalAlign=middle;resizable=0;points=[];autosize=1;strokeColor=none;fillColor=none;fontSize=16;" parent="1" vertex="1">
          <mxGeometry x="740" y="40" width="130" height="30" as="geometry" />
        </mxCell>
        <mxCell id="hAFXoPp_balmU8CgIpgm-50" style="edgeStyle=orthogonalEdgeStyle;rounded=0;orthogonalLoop=1;jettySize=auto;html=1;exitX=1;exitY=0.5;exitDx=0;exitDy=0;" parent="1" source="hAFXoPp_balmU8CgIpgm-30" target="hAFXoPp_balmU8CgIpgm-32" edge="1">
          <mxGeometry relative="1" as="geometry" />
        </mxCell>
        <mxCell id="hAFXoPp_balmU8CgIpgm-30" value="Socket Server Created" style="rounded=1;whiteSpace=wrap;html=1;" parent="1" vertex="1">
          <mxGeometry x="590" y="138" width="100" height="40" as="geometry" />
        </mxCell>
        <mxCell id="hAFXoPp_balmU8CgIpgm-53" style="edgeStyle=orthogonalEdgeStyle;rounded=0;orthogonalLoop=1;jettySize=auto;html=1;endArrow=none;endFill=0;" parent="1" source="hAFXoPp_balmU8CgIpgm-31" edge="1">
          <mxGeometry relative="1" as="geometry">
            <mxPoint x="700" y="158" as="targetPoint" />
          </mxGeometry>
        </mxCell>
        <mxCell id="hAFXoPp_balmU8CgIpgm-31" value="Frames from Pepper posted to socket server" style="rounded=1;whiteSpace=wrap;html=1;" parent="1" vertex="1">
          <mxGeometry x="878.75" y="131.5" width="87.5" height="53" as="geometry" />
        </mxCell>
        <mxCell id="hAFXoPp_balmU8CgIpgm-54" style="edgeStyle=orthogonalEdgeStyle;rounded=0;orthogonalLoop=1;jettySize=auto;html=1;entryX=0.5;entryY=0;entryDx=0;entryDy=0;" parent="1" source="hAFXoPp_balmU8CgIpgm-32" target="hAFXoPp_balmU8CgIpgm-35" edge="1">
          <mxGeometry relative="1" as="geometry" />
        </mxCell>
        <mxCell id="hAFXoPp_balmU8CgIpgm-32" value="MediaPipe object detection processes frames recieved" style="rounded=1;whiteSpace=wrap;html=1;" parent="1" vertex="1">
          <mxGeometry x="680" y="184.5" width="130" height="50" as="geometry" />
        </mxCell>
        <mxCell id="hAFXoPp_balmU8CgIpgm-63" style="edgeStyle=orthogonalEdgeStyle;rounded=0;orthogonalLoop=1;jettySize=auto;html=1;entryX=0.5;entryY=0;entryDx=0;entryDy=0;" parent="1" source="hAFXoPp_balmU8CgIpgm-35" target="hAFXoPp_balmU8CgIpgm-36" edge="1">
          <mxGeometry relative="1" as="geometry" />
        </mxCell>
        <mxCell id="hAFXoPp_balmU8CgIpgm-35" value="Object Detected" style="rounded=1;whiteSpace=wrap;html=1;" parent="1" vertex="1">
          <mxGeometry x="560" y="230" width="110" height="50" as="geometry" />
        </mxCell>
        <mxCell id="hAFXoPp_balmU8CgIpgm-56" style="edgeStyle=orthogonalEdgeStyle;rounded=0;orthogonalLoop=1;jettySize=auto;html=1;" parent="1" source="hAFXoPp_balmU8CgIpgm-36" target="hAFXoPp_balmU8CgIpgm-37" edge="1">
          <mxGeometry relative="1" as="geometry" />
        </mxCell>
        <mxCell id="hAFXoPp_balmU8CgIpgm-36" value="Location of object in frame" style="rounded=1;whiteSpace=wrap;html=1;" parent="1" vertex="1">
          <mxGeometry x="702" y="280" width="120" height="50" as="geometry" />
        </mxCell>
        <mxCell id="hAFXoPp_balmU8CgIpgm-57" style="edgeStyle=orthogonalEdgeStyle;rounded=0;orthogonalLoop=1;jettySize=auto;html=1;exitX=0.5;exitY=1;exitDx=0;exitDy=0;" parent="1" source="hAFXoPp_balmU8CgIpgm-37" target="hAFXoPp_balmU8CgIpgm-39" edge="1">
          <mxGeometry relative="1" as="geometry" />
        </mxCell>
        <mxCell id="hAFXoPp_balmU8CgIpgm-37" value="Provide depth of object at specified location" style="rounded=1;whiteSpace=wrap;html=1;" parent="1" vertex="1">
          <mxGeometry x="882.5" y="265" width="87.5" height="80" as="geometry" />
        </mxCell>
        <mxCell id="hAFXoPp_balmU8CgIpgm-64" style="edgeStyle=orthogonalEdgeStyle;rounded=0;orthogonalLoop=1;jettySize=auto;html=1;" parent="1" source="hAFXoPp_balmU8CgIpgm-39" target="hAFXoPp_balmU8CgIpgm-41" edge="1">
          <mxGeometry relative="1" as="geometry" />
        </mxCell>
        <mxCell id="hAFXoPp_balmU8CgIpgm-39" value="Calculate object position relative to Pepper" style="rounded=1;whiteSpace=wrap;html=1;" parent="1" vertex="1">
          <mxGeometry x="560" y="390" width="110" height="50" as="geometry" />
        </mxCell>
        <mxCell id="hAFXoPp_balmU8CgIpgm-65" style="edgeStyle=orthogonalEdgeStyle;rounded=0;orthogonalLoop=1;jettySize=auto;html=1;entryX=0;entryY=0.5;entryDx=0;entryDy=0;" parent="1" source="hAFXoPp_balmU8CgIpgm-41" target="hAFXoPp_balmU8CgIpgm-42" edge="1">
          <mxGeometry relative="1" as="geometry" />
        </mxCell>
        <mxCell id="hAFXoPp_balmU8CgIpgm-41" value="Post object location and corresponding bin choice" style="rounded=1;whiteSpace=wrap;html=1;" parent="1" vertex="1">
          <mxGeometry x="707" y="380" width="110" height="70" as="geometry" />
        </mxCell>
        <mxCell id="hAFXoPp_balmU8CgIpgm-60" style="edgeStyle=orthogonalEdgeStyle;rounded=0;orthogonalLoop=1;jettySize=auto;html=1;" parent="1" source="hAFXoPp_balmU8CgIpgm-42" target="hAFXoPp_balmU8CgIpgm-43" edge="1">
          <mxGeometry relative="1" as="geometry" />
        </mxCell>
        <mxCell id="hAFXoPp_balmU8CgIpgm-42" value="Move to object" style="rounded=1;whiteSpace=wrap;html=1;" parent="1" vertex="1">
          <mxGeometry x="866.25" y="395" width="120" height="40" as="geometry" />
        </mxCell>
        <mxCell id="hAFXoPp_balmU8CgIpgm-61" style="edgeStyle=orthogonalEdgeStyle;rounded=0;orthogonalLoop=1;jettySize=auto;html=1;" parent="1" source="hAFXoPp_balmU8CgIpgm-43" target="hAFXoPp_balmU8CgIpgm-44" edge="1">
          <mxGeometry relative="1" as="geometry" />
        </mxCell>
        <mxCell id="hAFXoPp_balmU8CgIpgm-43" value="Grasp object" style="rounded=1;whiteSpace=wrap;html=1;" parent="1" vertex="1">
          <mxGeometry x="866.25" y="460" width="120" height="30" as="geometry" />
        </mxCell>
        <mxCell id="hAFXoPp_balmU8CgIpgm-62" style="edgeStyle=orthogonalEdgeStyle;rounded=0;orthogonalLoop=1;jettySize=auto;html=1;entryX=0.5;entryY=0;entryDx=0;entryDy=0;" parent="1" source="hAFXoPp_balmU8CgIpgm-44" target="hAFXoPp_balmU8CgIpgm-45" edge="1">
          <mxGeometry relative="1" as="geometry" />
        </mxCell>
        <mxCell id="hAFXoPp_balmU8CgIpgm-44" value="Move to specified bin" style="rounded=1;whiteSpace=wrap;html=1;" parent="1" vertex="1">
          <mxGeometry x="886.25" y="515" width="80" height="30" as="geometry" />
        </mxCell>
        <mxCell id="hAFXoPp_balmU8CgIpgm-45" value="Drop Object" style="rounded=1;whiteSpace=wrap;html=1;" parent="1" vertex="1">
          <mxGeometry x="866.25" y="570" width="120" height="30" as="geometry" />
        </mxCell>
        <mxCell id="u87LNE0uiKQRKSDfqWR6-1" value="&lt;font style=&quot;font-size: 15px;&quot;&gt;Flow Diagram&lt;/font&gt;" style="text;html=1;align=center;verticalAlign=middle;resizable=0;points=[];autosize=1;strokeColor=none;fillColor=none;" vertex="1" parent="1">
          <mxGeometry x="1181" y="30" width="120" height="30" as="geometry" />
        </mxCell>
        <mxCell id="u87LNE0uiKQRKSDfqWR6-6" style="edgeStyle=orthogonalEdgeStyle;rounded=0;orthogonalLoop=1;jettySize=auto;html=1;entryX=0.5;entryY=0;entryDx=0;entryDy=0;" edge="1" parent="1" source="u87LNE0uiKQRKSDfqWR6-2" target="u87LNE0uiKQRKSDfqWR6-5">
          <mxGeometry relative="1" as="geometry" />
        </mxCell>
        <mxCell id="u87LNE0uiKQRKSDfqWR6-2" value="Start Socket Server" style="rounded=1;whiteSpace=wrap;html=1;" vertex="1" parent="1">
          <mxGeometry x="1180" y="160" width="120" height="39" as="geometry" />
        </mxCell>
        <mxCell id="u87LNE0uiKQRKSDfqWR6-4" style="edgeStyle=orthogonalEdgeStyle;rounded=0;orthogonalLoop=1;jettySize=auto;html=1;entryX=0.5;entryY=0;entryDx=0;entryDy=0;" edge="1" parent="1" source="u87LNE0uiKQRKSDfqWR6-3" target="u87LNE0uiKQRKSDfqWR6-2">
          <mxGeometry relative="1" as="geometry" />
        </mxCell>
        <mxCell id="u87LNE0uiKQRKSDfqWR6-3" value="" style="ellipse;fillColor=strokeColor;html=1;" vertex="1" parent="1">
          <mxGeometry x="1225" y="78" width="30" height="30" as="geometry" />
        </mxCell>
        <mxCell id="u87LNE0uiKQRKSDfqWR6-8" style="edgeStyle=orthogonalEdgeStyle;rounded=0;orthogonalLoop=1;jettySize=auto;html=1;entryX=0.5;entryY=0;entryDx=0;entryDy=0;" edge="1" parent="1" source="u87LNE0uiKQRKSDfqWR6-5" target="u87LNE0uiKQRKSDfqWR6-7">
          <mxGeometry relative="1" as="geometry" />
        </mxCell>
        <mxCell id="u87LNE0uiKQRKSDfqWR6-5" value="Send Frames from Pepper Robot" style="rounded=1;whiteSpace=wrap;html=1;" vertex="1" parent="1">
          <mxGeometry x="1180" y="235" width="120" height="35" as="geometry" />
        </mxCell>
        <mxCell id="u87LNE0uiKQRKSDfqWR6-12" style="edgeStyle=orthogonalEdgeStyle;rounded=0;orthogonalLoop=1;jettySize=auto;html=1;entryX=0.5;entryY=0;entryDx=0;entryDy=0;" edge="1" parent="1" source="u87LNE0uiKQRKSDfqWR6-7" target="u87LNE0uiKQRKSDfqWR6-9">
          <mxGeometry relative="1" as="geometry" />
        </mxCell>
        <mxCell id="u87LNE0uiKQRKSDfqWR6-14" value="No" style="edgeLabel;html=1;align=center;verticalAlign=middle;resizable=0;points=[];" vertex="1" connectable="0" parent="u87LNE0uiKQRKSDfqWR6-12">
          <mxGeometry x="-0.3893" relative="1" as="geometry">
            <mxPoint as="offset" />
          </mxGeometry>
        </mxCell>
        <mxCell id="u87LNE0uiKQRKSDfqWR6-13" style="edgeStyle=orthogonalEdgeStyle;rounded=0;orthogonalLoop=1;jettySize=auto;html=1;" edge="1" parent="1" source="u87LNE0uiKQRKSDfqWR6-7" target="u87LNE0uiKQRKSDfqWR6-10">
          <mxGeometry relative="1" as="geometry" />
        </mxCell>
        <mxCell id="u87LNE0uiKQRKSDfqWR6-17" value="Yes" style="edgeLabel;html=1;align=center;verticalAlign=middle;resizable=0;points=[];" vertex="1" connectable="0" parent="u87LNE0uiKQRKSDfqWR6-13">
          <mxGeometry x="-0.0925" y="2" relative="1" as="geometry">
            <mxPoint as="offset" />
          </mxGeometry>
        </mxCell>
        <mxCell id="u87LNE0uiKQRKSDfqWR6-7" value="Have Frames been received?" style="rhombus;whiteSpace=wrap;html=1;" vertex="1" parent="1">
          <mxGeometry x="1190" y="305" width="100" height="100" as="geometry" />
        </mxCell>
        <mxCell id="u87LNE0uiKQRKSDfqWR6-9" value="Wait for Frames" style="rounded=1;whiteSpace=wrap;html=1;" vertex="1" parent="1">
          <mxGeometry x="1190" y="440" width="100" height="42.5" as="geometry" />
        </mxCell>
        <mxCell id="u87LNE0uiKQRKSDfqWR6-19" style="edgeStyle=orthogonalEdgeStyle;rounded=0;orthogonalLoop=1;jettySize=auto;html=1;entryX=0.5;entryY=0;entryDx=0;entryDy=0;" edge="1" parent="1" source="u87LNE0uiKQRKSDfqWR6-10" target="u87LNE0uiKQRKSDfqWR6-16">
          <mxGeometry relative="1" as="geometry" />
        </mxCell>
        <mxCell id="u87LNE0uiKQRKSDfqWR6-10" value="Apply MediaPipe Object Detection" style="rounded=1;whiteSpace=wrap;html=1;" vertex="1" parent="1">
          <mxGeometry x="1360" y="332.5" width="100" height="45" as="geometry" />
        </mxCell>
        <mxCell id="u87LNE0uiKQRKSDfqWR6-15" style="edgeStyle=orthogonalEdgeStyle;rounded=0;orthogonalLoop=1;jettySize=auto;html=1;entryX=-0.03;entryY=0.516;entryDx=0;entryDy=0;entryPerimeter=0;exitX=0;exitY=0.5;exitDx=0;exitDy=0;" edge="1" parent="1" source="u87LNE0uiKQRKSDfqWR6-9" target="u87LNE0uiKQRKSDfqWR6-7">
          <mxGeometry relative="1" as="geometry">
            <Array as="points">
              <mxPoint x="1170" y="461" />
              <mxPoint x="1170" y="357" />
            </Array>
          </mxGeometry>
        </mxCell>
        <mxCell id="u87LNE0uiKQRKSDfqWR6-21" style="edgeStyle=orthogonalEdgeStyle;rounded=0;orthogonalLoop=1;jettySize=auto;html=1;entryX=0;entryY=0.5;entryDx=0;entryDy=0;" edge="1" parent="1" source="u87LNE0uiKQRKSDfqWR6-16" target="u87LNE0uiKQRKSDfqWR6-20">
          <mxGeometry relative="1" as="geometry" />
        </mxCell>
        <mxCell id="u87LNE0uiKQRKSDfqWR6-22" value="Yes" style="edgeLabel;html=1;align=center;verticalAlign=middle;resizable=0;points=[];" vertex="1" connectable="0" parent="u87LNE0uiKQRKSDfqWR6-21">
          <mxGeometry x="0.0094" y="-1" relative="1" as="geometry">
            <mxPoint as="offset" />
          </mxGeometry>
        </mxCell>
        <mxCell id="u87LNE0uiKQRKSDfqWR6-25" style="edgeStyle=orthogonalEdgeStyle;rounded=0;orthogonalLoop=1;jettySize=auto;html=1;entryX=0;entryY=0.5;entryDx=0;entryDy=0;exitX=0.5;exitY=1;exitDx=0;exitDy=0;" edge="1" parent="1" source="u87LNE0uiKQRKSDfqWR6-16" target="u87LNE0uiKQRKSDfqWR6-23">
          <mxGeometry relative="1" as="geometry" />
        </mxCell>
        <mxCell id="u87LNE0uiKQRKSDfqWR6-16" value="Any Objects Present?" style="rhombus;whiteSpace=wrap;html=1;" vertex="1" parent="1">
          <mxGeometry x="1370" y="421.25" width="80" height="78.75" as="geometry" />
        </mxCell>
        <mxCell id="u87LNE0uiKQRKSDfqWR6-24" style="edgeStyle=orthogonalEdgeStyle;rounded=0;orthogonalLoop=1;jettySize=auto;html=1;entryX=1;entryY=0.5;entryDx=0;entryDy=0;" edge="1" parent="1" source="u87LNE0uiKQRKSDfqWR6-20" target="u87LNE0uiKQRKSDfqWR6-23">
          <mxGeometry relative="1" as="geometry" />
        </mxCell>
        <mxCell id="u87LNE0uiKQRKSDfqWR6-20" value="Draw Label and Bounding Box" style="rounded=1;whiteSpace=wrap;html=1;" vertex="1" parent="1">
          <mxGeometry x="1530" y="443.13" width="100" height="36.25" as="geometry" />
        </mxCell>
        <mxCell id="u87LNE0uiKQRKSDfqWR6-26" style="edgeStyle=orthogonalEdgeStyle;rounded=0;orthogonalLoop=1;jettySize=auto;html=1;entryX=1;entryY=1;entryDx=0;entryDy=0;" edge="1" parent="1" source="u87LNE0uiKQRKSDfqWR6-23" target="u87LNE0uiKQRKSDfqWR6-7">
          <mxGeometry relative="1" as="geometry">
            <Array as="points">
              <mxPoint x="1500" y="560" />
              <mxPoint x="1330" y="560" />
              <mxPoint x="1330" y="380" />
            </Array>
          </mxGeometry>
        </mxCell>
        <mxCell id="u87LNE0uiKQRKSDfqWR6-23" value="Display Frame" style="rounded=1;whiteSpace=wrap;html=1;" vertex="1" parent="1">
          <mxGeometry x="1460" y="510" width="80" height="30" as="geometry" />
        </mxCell>
      </root>
    </mxGraphModel>
  </diagram>
</mxfile>
